<svg width="25" height="24" viewBox="0 0 25 24" fill="none" xmlns="http://www.w3.org/2000/svg">
<mask id="mask0_2_289" style="mask-type:luminance" maskUnits="userSpaceOnUse" x="0" y="0" width="25" height="24">
<path d="M0.0700684 0H24.0701V24H0.0700684V0Z" fill="white"/>
</mask>
<g mask="url(#mask0_2_289)">
<path d="M10.921 17.6475L16.771 11.7735L15.6955 10.7235L10.945 15.4725L8.34551 12.873L7.24601 13.9485L10.921 17.6475ZM5.69501 22.35C5.16251 22.35 4.69901 22.155 4.30751 21.762C4.12021 21.5831 3.97155 21.3676 3.87068 21.129C3.76981 20.8904 3.71887 20.6336 3.72101 20.3745V3.62255C3.72101 3.07355 3.91601 2.60255 4.30751 2.21105C4.69901 1.81955 5.16251 1.62305 5.69501 1.62305H14.746L20.446 7.32305V20.373C20.446 20.907 20.2495 21.369 19.858 21.7605C19.6752 21.9499 19.4555 22.0998 19.2124 22.2009C18.9694 22.3021 18.7082 22.3523 18.445 22.3485L5.69501 22.35ZM13.72 8.27255V3.62255H5.69501V20.373H18.445V8.27255H13.72Z" fill="#383736"/>
</g>
</svg>
