<svg width="16" height="10" viewBox="0 0 16 10" fill="none" xmlns="http://www.w3.org/2000/svg">
<path d="M0.875329 9.64628C0.75961 9.64944 0.644469 9.62889 0.536986 9.58589C0.429503 9.5429 0.331951 9.47837 0.25033 9.39628C0.168179 9.3147 0.103613 9.21716 0.0606161 9.10967C0.0176187 9.00217 -0.00289869 8.88701 0.000329563 8.77128C0.000329563 8.53378 0.0865795 8.33003 0.260329 8.15628C0.339622 8.07321 0.435107 8.00727 0.540886 7.96255C0.646665 7.91783 0.76049 7.89528 0.875329 7.89628C1.12533 7.89628 1.33283 7.98253 1.50033 8.15628C1.66658 8.33003 1.75033 8.53503 1.75033 8.77128C1.75033 9.02128 1.66658 9.22878 1.50033 9.39628C1.33283 9.56253 1.12533 9.64628 0.875329 9.64628ZM0.875329 5.70878C0.625329 5.70878 0.41658 5.62128 0.25033 5.44753C0.169874 5.36678 0.106325 5.2708 0.0633993 5.16521C0.0204735 5.05961 -0.000967628 4.94651 0.000329563 4.83253C0.000329563 4.58253 0.0865795 4.37503 0.260329 4.20753C0.341078 4.12708 0.437057 4.06353 0.542655 4.0206C0.648252 3.97768 0.761348 3.95623 0.875329 3.95753C1.12533 3.95753 1.33283 4.04503 1.50033 4.21878C1.66658 4.39253 1.75033 4.59753 1.75033 4.83253C1.75033 5.08253 1.66658 5.29128 1.50033 5.45753C1.33283 5.62503 1.12533 5.70878 0.875329 5.70878ZM0.875329 1.75003C0.759601 1.75326 0.644437 1.73274 0.536944 1.68975C0.429451 1.64675 0.331907 1.58218 0.25033 1.50003C0.168179 1.41846 0.103613 1.32091 0.0606161 1.21342C0.0176187 1.10592 -0.00289869 0.990761 0.000329563 0.875033C0.000329563 0.637533 0.0865795 0.433782 0.260329 0.260032C0.339622 0.176956 0.435107 0.11102 0.540886 0.0663006C0.646665 0.0215811 0.76049 -0.000972848 0.875329 3.21688e-05C1.12533 3.21688e-05 1.33283 0.0875324 1.50033 0.260032C1.66658 0.433782 1.75033 0.638783 1.75033 0.875033C1.75033 1.12503 1.66658 1.33253 1.50033 1.50003C1.33283 1.66628 1.12533 1.75003 0.875329 1.75003ZM3.95783 9.60378V7.95878H15.5828V9.60503H3.95783V9.60378ZM3.95783 5.66628V4.00003H15.5828V5.66628H3.95783ZM3.95783 1.70753V0.0625324H15.5828V1.70753H3.95783Z" fill="#99968F"/>
</svg>
