<svg width="19" height="18" viewBox="0 0 19 18" fill="none" xmlns="http://www.w3.org/2000/svg">
<path d="M4.50006 10.6886H11.0213V9.43855H4.50006V10.6886ZM4.50006 7.98105H14.5001V6.73105H4.50006V7.98105ZM4.50006 5.2723H14.5001V4.0223H4.50006V5.2723ZM0.872559 17.6298V2.0248C0.872559 1.5698 1.03506 1.17855 1.35881 0.852305C1.68381 0.526055 2.07131 0.362305 2.52256 0.362305H16.4776C16.9313 0.362305 17.3226 0.524805 17.6488 0.852305C17.9763 1.17855 18.1388 1.5698 18.1388 2.0248V12.6461C18.1388 13.0961 17.9763 13.4848 17.6488 13.8086C17.3238 14.1336 16.9313 14.2961 16.4776 14.2961H4.20506L0.872559 17.6298Z" fill="#8283FF"/>
</svg>
