<svg width="19" height="10" viewBox="0 0 19 10" fill="none" xmlns="http://www.w3.org/2000/svg">
<path d="M8.75 9.46006H5.3325C4.09625 9.46006 3.045 9.02631 2.17625 8.15756C1.30875 7.29006 0.875 6.23756 0.875 5.00131C0.875 3.76506 1.30875 2.71006 2.17625 1.83506C2.58398 1.41123 3.07467 1.07596 3.6177 0.850142C4.16073 0.624327 4.74447 0.512815 5.3325 0.522561H8.75V2.18881H5.3325C4.555 2.18881 3.89125 2.46006 3.34375 3.00131C3.076 3.25989 2.86461 3.57104 2.72285 3.91522C2.58109 4.2594 2.51203 4.62917 2.52 5.00131C2.52 5.78006 2.795 6.44256 3.34375 6.99131C3.89125 7.54006 4.55625 7.81381 5.3325 7.81381H8.75V9.46006ZM6.0625 5.68881V4.31381H12.9375V5.68881H6.0625ZM10.25 9.46006V7.81381H13.6663C14.4437 7.81381 15.1075 7.54381 15.6562 7.00131C15.9238 6.74262 16.1349 6.43143 16.2765 6.08725C16.418 5.74308 16.4869 5.37336 16.4788 5.00131C16.4788 4.22381 16.2037 3.56131 15.6562 3.01256C15.3985 2.74654 15.0889 2.53619 14.7466 2.3945C14.4043 2.25282 14.0366 2.18282 13.6663 2.18881H10.25V0.522561H13.6663C14.9025 0.522561 15.9575 0.96006 16.8325 1.83506C17.7075 2.71006 18.145 3.76506 18.145 5.00131C18.145 6.23881 17.7075 7.28881 16.8325 8.15756C16.4209 8.57831 15.9278 8.9108 15.3834 9.13473C14.8391 9.35867 14.2548 9.46936 13.6663 9.46006H10.25Z" fill="#1A1A1A"/>
</svg>
