<svg width="14" height="15" viewBox="0 0 14 15" fill="none" xmlns="http://www.w3.org/2000/svg">
<path d="M5.9998 10.6652L10.8158 5.84918L9.86581 4.89918L5.9998 8.76518L4.08281 6.85018L3.14981 7.80018L5.9998 10.6652ZM6.9998 14.4002C6.0548 14.4002 5.1628 14.2202 4.3248 13.8582C3.50344 13.509 2.75663 13.0056 2.12481 12.3752C1.49542 11.7454 0.991775 11.0015 0.640805 10.1832C0.276949 9.3355 0.0927408 8.42162 0.0998051 7.49918C0.0998051 6.54318 0.279805 5.64618 0.640805 4.80718C0.987876 3.98897 1.48858 3.24487 2.11581 2.61518C2.74661 1.98728 3.4903 1.48413 4.30781 1.13218C5.15704 0.76336 6.07396 0.576025 6.9998 0.582178C7.9548 0.582178 8.8548 0.765178 9.69981 1.13218C10.517 1.48066 11.2605 1.9812 11.8908 2.60718C12.5154 3.23559 13.0158 3.97621 13.3658 4.79018C13.7328 5.63018 13.9158 6.53218 13.9158 7.49918C13.9158 8.45418 13.7328 9.35118 13.3658 10.1902C13.0139 11.0077 12.5107 11.7514 11.8828 12.3822C11.2554 13.008 10.5145 13.5086 9.69981 13.8572C8.8469 14.2224 7.92758 14.4079 6.9998 14.4002Z" fill="#5A5957"/>
</svg>
