<svg width="19" height="18" viewBox="0 0 19 18" fill="none" xmlns="http://www.w3.org/2000/svg">
<path d="M4.1663 13.5615C4.97099 13.0394 5.83933 12.6226 6.75005 12.3215C7.6401 12.0442 8.56786 11.9072 9.50005 11.9152C10.4863 11.9152 11.4088 12.054 12.27 12.3315C13.1325 12.6102 13.9925 13.019 14.8538 13.5615C15.4513 12.7977 15.8713 12.0502 16.1138 11.3215C16.3601 10.5721 16.4834 9.78777 16.4788 8.99896C16.4788 7.02646 15.8088 5.37021 14.4688 4.03021C13.1275 2.68771 11.4713 2.01896 9.50005 2.01896C7.52755 2.01896 5.8713 2.68896 4.5313 4.03021C3.19005 5.37021 2.52005 7.02521 2.52005 8.99896C2.52005 9.81771 2.64505 10.5927 2.89505 11.3215C3.14505 12.0502 3.57005 12.7965 4.1663 13.5615ZM9.50005 9.70646C8.6663 9.70646 7.9713 9.42521 7.4163 8.86271C6.86005 8.30021 6.58255 7.61021 6.58255 6.79021C6.58255 5.95646 6.8638 5.25896 7.4263 4.69646C7.9888 4.13396 8.68005 3.85271 9.50005 3.85271C10.3325 3.85271 11.0275 4.13771 11.5825 4.70646C12.1388 5.27646 12.4163 5.97021 12.4163 6.79021C12.4163 7.61021 12.135 8.30021 11.5725 8.86271C11.01 9.42521 10.3188 9.70646 9.50005 9.70646ZM9.50005 17.6252C8.30505 17.6252 7.1838 17.4002 6.13505 16.9477C5.10834 16.5112 4.17482 15.8819 3.38505 15.094C2.5858 14.2935 1.95261 13.3429 1.52187 12.2969C1.09112 11.2509 0.871303 10.1302 0.875047 8.99896C0.875047 7.80396 1.10005 6.68271 1.5513 5.63396C1.98655 4.60923 2.61653 3.67869 3.4063 2.89396C4.19975 2.11047 5.13236 1.4818 6.1563 1.04021C7.21746 0.579363 8.36316 0.345198 9.52005 0.352714C10.7013 0.352714 11.815 0.581464 12.8638 1.04021C13.8857 1.48015 14.8153 2.10909 15.6038 2.89396C16.3887 3.68247 17.0176 4.61209 17.4575 5.63396C17.9163 6.68271 18.145 7.80396 18.145 8.99896C18.145 10.179 17.9163 11.294 17.4575 12.3427C17.016 13.3667 16.3873 14.2993 15.6038 15.0927C14.819 15.8821 13.8884 16.5116 12.8638 16.9465C11.8009 17.4008 10.6559 17.6327 9.50005 17.6252Z" fill="#1A1A1A"/>
</svg>
