<svg width="33" height="33" viewBox="0 0 33 33" fill="none" xmlns="http://www.w3.org/2000/svg">
<path d="M9.41651 25.6351L28.6165 25.6441L28.625 7.64413L4.625 7.63281L4.61651 25.6328L9.41651 25.6351Z" fill="#F5C13D"/>
<path d="M18.625 7.63958L18.6241 9.63958L16.6241 9.63864L16.6231 11.6386L14.6231 11.6377L14.6184 21.6377L16.6184 21.6386L16.6175 23.6386L18.6175 23.6396L18.6165 25.6396L28.6165 25.6443L28.6184 21.6443L20.6184 21.6405L20.6193 19.6405L18.6193 19.6396L18.6222 13.6396L20.6222 13.6405L20.6231 11.6405L28.6231 11.6443L28.625 7.6443L18.625 7.63958Z" fill="#FFD466"/>
<path fill-rule="evenodd" clip-rule="evenodd" d="M20.6192 19.6401L20.6221 13.6401L28.6221 13.6439L28.6192 19.6439L20.6192 19.6401ZM22.6202 17.6411L26.6202 17.643L26.6211 15.643L22.6211 15.6411L22.6202 17.6411Z" fill="#FFE299"/>
<path d="M28.625 7.64413L4.62503 7.63281L4.62598 5.63281L28.626 5.64413L28.625 7.64413Z" fill="#1A1A1A"/>
<path d="M28.6165 25.6439L28.6184 21.6477L20.6184 21.6439L20.6193 19.644L28.6193 19.6478L28.6222 13.6477L20.6222 13.6439L20.6231 11.644L28.6231 11.6478L28.625 7.64391L30.625 7.64485L30.6165 25.6448L28.6165 25.6439Z" fill="#1A1A1A"/>
<path d="M4.61651 25.6328L2.61651 25.6318L2.625 7.63184L4.625 7.63278L4.61651 25.6328Z" fill="#1A1A1A"/>
<path d="M4.61621 25.6328L4.61527 27.6328L28.6153 27.6441L28.6162 25.6441L4.61621 25.6328Z" fill="#1A1A1A"/>
<path d="M18.6192 19.6431L20.6192 19.6441L20.6221 13.644L18.6221 13.6432L18.6192 19.6431Z" fill="#1A1A1A"/>
<path d="M22.6202 17.6449L22.6211 15.645L26.6213 15.6469L26.6204 17.6468L22.6202 17.6449Z" fill="#1A1A1A"/>
</svg>
