<svg width="24" height="25" viewBox="0 0 24 25" fill="none" xmlns="http://www.w3.org/2000/svg">
<path d="M23.0344 7.4744L20.2031 10.2963C19.6406 16.8494 14.1094 21.94 7.50001 21.94C6.14063 21.94 5.01563 21.7244 4.16251 21.3025C3.47813 20.9557 3.19688 20.59 3.12188 20.4775C3.05983 20.3833 3.01984 20.2762 3.0049 20.1644C2.98996 20.0525 3.00046 19.9388 3.0356 19.8315C3.07074 19.7243 3.12963 19.6264 3.20788 19.5451C3.28612 19.4637 3.3817 19.4011 3.48751 19.3619C3.50626 19.3525 5.71876 18.5088 7.15313 16.8869C6.26358 16.2535 5.48171 15.4812 4.83751 14.5994C3.55313 12.8557 2.19376 9.82753 3.00938 5.30878C3.03502 5.17444 3.09646 5.04952 3.18722 4.94721C3.27798 4.8449 3.39468 4.769 3.52501 4.72753C3.65574 4.68472 3.79574 4.67869 3.92967 4.71011C4.0636 4.74153 4.18632 4.80918 4.28438 4.90565C4.31251 4.94315 7.43438 8.01815 11.25 9.0119V8.44003C11.2537 7.84538 11.3745 7.25729 11.6054 6.70932C11.8364 6.16135 12.173 5.66424 12.5961 5.24637C13.0192 4.82851 13.5205 4.49807 14.0713 4.27393C14.6221 4.04978 15.2116 3.93632 15.8063 3.94003C16.5867 3.95116 17.351 4.16426 18.0246 4.55857C18.6982 4.95288 19.2582 5.51496 19.65 6.19003H22.5C22.6481 6.18957 22.793 6.23294 22.9164 6.31469C23.0399 6.39644 23.1364 6.5129 23.1938 6.6494C23.2478 6.78794 23.2615 6.93894 23.2333 7.08494C23.2051 7.23094 23.1361 7.36596 23.0344 7.4744Z" fill="#7C54A9"/>
</svg>
