<svg width="25" height="24" viewBox="0 0 25 24" fill="none" xmlns="http://www.w3.org/2000/svg">
<mask id="mask0_96_668" style="mask-type:luminance" maskUnits="userSpaceOnUse" x="0" y="0" width="25" height="24">
<path d="M0.0698242 0H24.0698V24H0.0698242V0Z" fill="white"/>
</mask>
<g mask="url(#mask0_96_668)">
<path d="M10.9208 17.6475L16.7708 11.7735L15.6953 10.7235L10.9448 15.4725L8.34527 12.873L7.24577 13.9485L10.9208 17.6475ZM5.69477 22.35C5.16227 22.35 4.69877 22.155 4.30727 21.762C4.11997 21.5831 3.9713 21.3676 3.87043 21.129C3.76956 20.8904 3.71863 20.6336 3.72077 20.3745V3.62255C3.72077 3.07355 3.91577 2.60255 4.30727 2.21105C4.69877 1.81955 5.16227 1.62305 5.69477 1.62305H14.7458L20.4458 7.32305V20.373C20.4458 20.907 20.2493 21.369 19.8578 21.7605C19.6749 21.9499 19.4552 22.0998 19.2122 22.2009C18.9692 22.3021 18.708 22.3523 18.4448 22.3485L5.69477 22.35ZM13.7198 8.27255V3.62255H5.69477V20.373H18.4448V8.27255H13.7198Z" fill="#383736"/>
</g>
</svg>
