<svg width="25" height="24" viewBox="0 0 25 24" fill="none" xmlns="http://www.w3.org/2000/svg">
<mask id="mask0_96_609" style="mask-type:luminance" maskUnits="userSpaceOnUse" x="0" y="0" width="25" height="24">
<path d="M0.569824 0H24.5698V24H0.569824V0Z" fill="white"/>
</mask>
<g mask="url(#mask0_96_609)">
<path d="M11.4208 17.6475L17.2708 11.7735L16.1953 10.7235L11.4448 15.4725L8.84527 12.873L7.74577 13.9485L11.4208 17.6475ZM6.19477 22.35C5.66227 22.35 5.19877 22.155 4.80727 21.762C4.61997 21.5831 4.4713 21.3676 4.37043 21.129C4.26956 20.8904 4.21863 20.6336 4.22077 20.3745V3.62255C4.22077 3.07355 4.41577 2.60255 4.80727 2.21105C5.19877 1.81955 5.66227 1.62305 6.19477 1.62305H15.2458L20.9458 7.32305V20.373C20.9458 20.907 20.7493 21.369 20.3578 21.7605C20.1749 21.9499 19.9552 22.0998 19.7122 22.2009C19.4692 22.3021 19.208 22.3523 18.9448 22.3485L6.19477 22.35ZM14.2198 8.27255V3.62255H6.19477V20.373H18.9448V8.27255H14.2198Z" fill="#383736"/>
</g>
</svg>
