<svg width="25" height="24" viewBox="0 0 25 24" fill="none" xmlns="http://www.w3.org/2000/svg">
<mask id="mask0_2_225" style="mask-type:luminance" maskUnits="userSpaceOnUse" x="0" y="0" width="25" height="24">
<path d="M0.570068 0H24.5701V24H0.570068V0Z" fill="white"/>
</mask>
<g mask="url(#mask0_2_225)">
<path d="M11.421 17.6475L17.271 11.7735L16.1955 10.7235L11.445 15.4725L8.84551 12.873L7.74601 13.9485L11.421 17.6475ZM6.19501 22.35C5.66251 22.35 5.19901 22.155 4.80751 21.762C4.62021 21.5831 4.47155 21.3676 4.37068 21.129C4.26981 20.8904 4.21887 20.6336 4.22101 20.3745V3.62255C4.22101 3.07355 4.41601 2.60255 4.80751 2.21105C5.19901 1.81955 5.66251 1.62305 6.19501 1.62305H15.246L20.946 7.32305V20.373C20.946 20.907 20.7495 21.369 20.358 21.7605C20.1752 21.9499 19.9555 22.0998 19.7124 22.2009C19.4694 22.3021 19.2082 22.3523 18.945 22.3485L6.19501 22.35ZM14.22 8.27255V3.62255H6.19501V20.373H18.945V8.27255H14.22Z" fill="#383736"/>
</g>
</svg>
