<svg width="50" height="49" viewBox="0 0 50 49" fill="none" xmlns="http://www.w3.org/2000/svg">
<g clip-path="url(#clip0_2_1118)">
<mask id="mask0_2_1118" style="mask-type:luminance" maskUnits="userSpaceOnUse" x="1" y="0" width="49" height="49">
<path d="M49.3334 0.630127H1.33337V48.6301H49.3334V0.630127Z" fill="white"/>
</mask>
<g mask="url(#mask0_2_1118)">
<path d="M25.3334 1.22412C12.0734 1.22412 1.33337 11.9701 1.33337 25.2241C1.33337 35.8301 8.20937 44.8241 17.7434 47.9941C18.9434 48.2201 19.3834 47.4781 19.3834 46.8401C19.3834 46.2701 19.3634 44.7601 19.3534 42.7601C12.6774 44.2081 11.2694 39.5401 11.2694 39.5401C10.1774 36.7701 8.59937 36.0301 8.59937 36.0301C6.42537 34.5421 8.76737 34.5721 8.76737 34.5721C11.1774 34.7401 12.4434 37.0441 12.4434 37.0441C14.5834 40.7141 18.0614 39.6541 19.4334 39.0401C19.6494 37.4881 20.2674 36.4301 20.9534 35.8301C15.6234 35.2301 10.0214 33.1661 10.0214 23.9701C10.0214 21.3501 10.9514 19.2101 12.4914 17.5301C12.2214 16.9241 11.4114 14.4841 12.7014 11.1781C12.7014 11.1781 14.7114 10.5341 19.3014 13.6381C21.2214 13.1041 23.2614 12.8401 25.3014 12.8281C27.3414 12.8401 29.3814 13.1041 31.3014 13.6381C35.8614 10.5341 37.8714 11.1781 37.8714 11.1781C39.1614 14.4841 38.3514 16.9241 38.1114 17.5301C39.6414 19.2101 40.5714 21.3501 40.5714 23.9701C40.5714 33.1901 34.9614 35.2201 29.6214 35.8101C30.4614 36.5301 31.2414 38.0021 31.2414 40.2501C31.2414 43.4621 31.2114 46.0421 31.2114 46.8221C31.2114 47.4521 31.6314 48.2021 32.8614 47.9621C42.4634 44.8141 49.3334 35.8141 49.3334 25.2241C49.3334 11.9701 38.5874 1.22412 25.3334 1.22412Z" fill="white"/>
</g>
</g>
<defs>
<clipPath id="clip0_2_1118">
<rect width="49" height="48" fill="white" transform="translate(0.833374 0.630127)"/>
</clipPath>
</defs>
</svg>
