<svg width="49" height="38" viewBox="0 0 49 38" fill="none" xmlns="http://www.w3.org/2000/svg">
<g clip-path="url(#clip0_2_1097)">
<path d="M41.2061 4.27122C38.1577 2.88034 34.9405 1.8885 31.6353 1.32056C31.6053 1.315 31.5743 1.31898 31.5466 1.33195C31.519 1.34492 31.4962 1.36622 31.4815 1.39281C31.0681 2.12366 30.6102 3.0769 30.2897 3.82605C26.6756 3.28819 23.0799 3.28819 19.5401 3.82605C19.2196 3.06015 18.745 2.12366 18.3299 1.39281C18.3145 1.36683 18.2916 1.34605 18.2642 1.3332C18.2367 1.32034 18.2061 1.31601 18.1761 1.32076C14.8706 1.88737 11.6532 2.87912 8.6051 4.27102C8.57902 4.28209 8.55705 4.30094 8.54221 4.32496C2.44641 13.3771 0.776395 22.2067 1.59573 30.9268C1.59804 30.9481 1.60465 30.9688 1.61515 30.9876C1.62565 31.0064 1.63983 31.0228 1.65685 31.0361C5.67867 33.9719 9.5745 35.7541 13.398 36.9354C13.4278 36.9442 13.4596 36.9438 13.4889 36.9342C13.5184 36.9246 13.5443 36.9062 13.563 36.8817C14.4674 35.6541 15.2736 34.3594 15.965 32.9982C15.9745 32.9795 15.9798 32.9592 15.9809 32.9383C15.9819 32.9174 15.9784 32.8966 15.9707 32.8771C15.963 32.8576 15.9512 32.8401 15.9363 32.8255C15.9212 32.8109 15.9032 32.7996 15.8835 32.7924C14.6045 32.3102 13.3869 31.7223 12.2155 31.0548C12.1941 31.0423 12.1762 31.0248 12.1633 31.0037C12.1503 30.9828 12.1428 30.9589 12.1413 30.9343C12.1398 30.9098 12.1445 30.8852 12.1548 30.8628C12.1651 30.8405 12.1809 30.821 12.2006 30.8061C12.447 30.6224 12.6937 30.4316 12.929 30.2386C12.95 30.2215 12.9752 30.2105 13.0021 30.2069C13.0289 30.2033 13.0563 30.2072 13.081 30.2182C20.7763 33.7104 29.1072 33.7104 36.7115 30.2182C36.7363 30.2064 36.764 30.2019 36.7912 30.2052C36.8184 30.2085 36.8441 30.2194 36.8653 30.2367C37.1008 30.4295 37.3473 30.6224 37.5957 30.8061C37.6155 30.8208 37.6313 30.8402 37.6418 30.8625C37.6522 30.8847 37.6571 30.9092 37.6558 30.9337C37.6545 30.9583 37.6472 30.9821 37.6345 31.0032C37.6218 31.0243 37.6039 31.0419 37.5828 31.0546C36.411 31.7349 35.1835 32.3156 33.9132 32.7904C33.8935 32.7979 33.8756 32.8094 33.8607 32.8243C33.8457 32.8391 33.8342 32.857 33.8266 32.8766C33.8191 32.8962 33.8159 32.9172 33.817 32.9382C33.8182 32.9591 33.8238 32.9795 33.8335 32.9982C34.5396 34.3575 35.3458 35.6521 36.2335 36.8797C36.2516 36.905 36.2773 36.924 36.307 36.9341C36.3366 36.944 36.3686 36.9445 36.3985 36.9354C40.2404 35.754 44.1363 33.9717 48.1581 31.0361C48.1754 31.0235 48.1898 31.0074 48.2004 30.9888C48.211 30.9703 48.2174 30.9498 48.2194 30.9286C49.1998 20.847 46.5772 12.0899 41.2672 4.32672C41.2542 4.3015 41.2326 4.28194 41.2061 4.27122ZM17.114 25.6171C14.7973 25.6171 12.8883 23.5029 12.8883 20.9064C12.8883 18.3102 14.7603 16.1959 17.1142 16.1959C19.4864 16.1959 21.3768 18.3287 21.3398 20.9066C21.3398 23.5029 19.4678 25.6171 17.114 25.6171ZM32.7381 25.6171C30.4214 25.6171 28.5124 23.5029 28.5124 20.9064C28.5124 18.3102 30.3842 16.1959 32.7381 16.1959C35.1103 16.1959 37.0007 18.3287 36.9637 20.9066C36.9637 23.5029 35.1103 25.6171 32.7381 25.6171Z" fill="white"/>
</g>
<defs>
<clipPath id="clip0_2_1097">
<rect width="48" height="37" fill="white" transform="translate(0.666626 0.630127)"/>
</clipPath>
</defs>
</svg>
