<svg width="14" height="15" viewBox="0 0 14 15" fill="none" xmlns="http://www.w3.org/2000/svg">
<path d="M5.9998 10.6649L10.8158 5.84893L9.86581 4.89893L5.9998 8.76493L4.08281 6.84993L3.14981 7.79993L5.9998 10.6649ZM6.9998 14.3999C6.0548 14.3999 5.1628 14.2199 4.3248 13.8579C3.50344 13.5087 2.75663 13.0053 2.12481 12.3749C1.49542 11.7451 0.991775 11.0012 0.640805 10.1829C0.276949 9.33526 0.0927408 8.42137 0.0998051 7.49893C0.0998051 6.54293 0.279805 5.64593 0.640805 4.80693C0.987876 3.98872 1.48858 3.24463 2.11581 2.61493C2.74661 1.98703 3.4903 1.48388 4.30781 1.13193C5.15704 0.763116 6.07396 0.575781 6.9998 0.581934C7.9548 0.581934 8.8548 0.764934 9.69981 1.13193C10.517 1.48041 11.2605 1.98095 11.8908 2.60693C12.5154 3.23534 13.0158 3.97597 13.3658 4.78993C13.7328 5.62993 13.9158 6.53193 13.9158 7.49893C13.9158 8.45393 13.7328 9.35093 13.3658 10.1899C13.0139 11.0074 12.5107 11.7511 11.8828 12.3819C11.2554 13.0078 10.5145 13.5083 9.69981 13.8569C8.8469 14.2221 7.92758 14.4077 6.9998 14.3999Z" fill="#5A5957"/>
</svg>
