<svg width="18" height="9" viewBox="0 0 18 9" fill="none" xmlns="http://www.w3.org/2000/svg">
<path d="M8.25 8.96006H4.8325C3.59625 8.96006 2.545 8.52631 1.67625 7.65756C0.80875 6.79006 0.375 5.73756 0.375 4.50131C0.375 3.26506 0.80875 2.21006 1.67625 1.33506C2.08398 0.911233 2.57467 0.575958 3.1177 0.350142C3.66073 0.124327 4.24447 0.012815 4.8325 0.0225605H8.25V1.68881H4.8325C4.055 1.68881 3.39125 1.96006 2.84375 2.50131C2.576 2.75989 2.36461 3.07104 2.22285 3.41522C2.08109 3.7594 2.01203 4.12917 2.02 4.50131C2.02 5.28006 2.295 5.94256 2.84375 6.49131C3.39125 7.04006 4.05625 7.31381 4.8325 7.31381H8.25V8.96006ZM5.5625 5.18881V3.81381H12.4375V5.18881H5.5625ZM9.75 8.96006V7.31381H13.1663C13.9437 7.31381 14.6075 7.04381 15.1562 6.50131C15.4238 6.24262 15.6349 5.93143 15.7765 5.58725C15.918 5.24308 15.9869 4.87336 15.9788 4.50131C15.9788 3.72381 15.7037 3.06131 15.1562 2.51256C14.8985 2.24654 14.5889 2.03619 14.2466 1.8945C13.9043 1.75282 13.5366 1.68282 13.1663 1.68881H9.75V0.0225605H13.1663C14.4025 0.0225605 15.4575 0.46006 16.3325 1.33506C17.2075 2.21006 17.645 3.26506 17.645 4.50131C17.645 5.73881 17.2075 6.78881 16.3325 7.65756C15.9209 8.07831 15.4278 8.4108 14.8834 8.63473C14.3391 8.85867 13.7548 8.96936 13.1663 8.96006H9.75Z" fill="#99968F"/>
</svg>
