<svg width="21" height="12" viewBox="0 0 21 12" fill="none" xmlns="http://www.w3.org/2000/svg">
<path d="M9.5999 11.3519H5.4989C4.0154 11.3519 2.7539 10.8314 1.7114 9.78893C0.670402 8.74793 0.149902 7.48493 0.149902 6.00143C0.149902 4.51793 0.670402 3.25193 1.7114 2.20193C2.20068 1.69333 2.7895 1.291 3.44114 1.02002C4.09278 0.749046 4.79326 0.615232 5.4989 0.626926H9.5999V2.62643H5.4989C4.5659 2.62643 3.7694 2.95193 3.1124 3.60143C2.7911 3.91172 2.53743 4.2851 2.36732 4.69811C2.19721 5.11113 2.11433 5.55486 2.1239 6.00143C2.1239 6.93593 2.4539 7.73093 3.1124 8.38943C3.7694 9.04793 4.5674 9.37643 5.4989 9.37643H9.5999V11.3519ZM6.3749 6.82643V5.17643H14.6249V6.82643H6.3749ZM11.3999 11.3519V9.37643H15.4994C16.4324 9.37643 17.2289 9.05243 17.8874 8.40143C18.2084 8.091 18.4618 7.71756 18.6317 7.30456C18.8015 6.89155 18.8842 6.44789 18.8744 6.00143C18.8744 5.06843 18.5444 4.27343 17.8874 3.61493C17.5781 3.2957 17.2065 3.04328 16.7958 2.87326C16.3851 2.70324 15.9439 2.61923 15.4994 2.62643H11.3999V0.626926H15.4994C16.9829 0.626926 18.2489 1.15193 19.2989 2.20193C20.3489 3.25193 20.8739 4.51793 20.8739 6.00143C20.8739 7.48643 20.3489 8.74643 19.2989 9.78893C18.8049 10.2938 18.2133 10.6928 17.56 10.9615C16.9068 11.2303 16.2057 11.3631 15.4994 11.3519H11.3999Z" fill="#99968F"/>
</svg>
