<svg width="19" height="18" viewBox="0 0 19 18" fill="none" xmlns="http://www.w3.org/2000/svg">
<path d="M4.50006 10.6888H11.0213V9.4388H4.50006V10.6888ZM4.50006 7.9813H14.5001V6.7313H4.50006V7.9813ZM4.50006 5.27255H14.5001V4.02255H4.50006V5.27255ZM0.872559 17.63V2.02505C0.872559 1.57005 1.03506 1.1788 1.35881 0.852549C1.68381 0.526299 2.07131 0.362549 2.52256 0.362549H16.4776C16.9313 0.362549 17.3226 0.525049 17.6488 0.852549C17.9763 1.1788 18.1388 1.57005 18.1388 2.02505V12.6463C18.1388 13.0963 17.9763 13.485 17.6488 13.8088C17.3238 14.1338 16.9313 14.2963 16.4776 14.2963H4.20506L0.872559 17.63Z" fill="#8283FF"/>
</svg>
