<svg width="19" height="18" viewBox="0 0 19 18" fill="none" xmlns="http://www.w3.org/2000/svg">
<path d="M4.49957 10.6888H11.0208V9.4388H4.49957V10.6888ZM4.49957 7.9813H14.4996V6.7313H4.49957V7.9813ZM4.49957 5.27255H14.4996V4.02255H4.49957V5.27255ZM0.87207 17.63V2.02505C0.87207 1.57005 1.03457 1.1788 1.35832 0.852549C1.68332 0.526299 2.07082 0.362549 2.52207 0.362549H16.4771C16.9308 0.362549 17.3221 0.525049 17.6483 0.852549C17.9758 1.1788 18.1383 1.57005 18.1383 2.02505V12.6463C18.1383 13.0963 17.9758 13.485 17.6483 13.8088C17.3233 14.1338 16.9308 14.2963 16.4771 14.2963H4.20457L0.87207 17.63Z" fill="#8283FF"/>
</svg>
