<svg width="49" height="40" viewBox="0 0 49 40" fill="none" xmlns="http://www.w3.org/2000/svg">
<path d="M48.156 4.77017C46.359 5.56117 44.455 6.08417 42.506 6.32017C44.558 5.08717 46.095 3.15217 46.832 0.874172C44.93 1.98417 42.822 2.79217 40.578 3.24217C39.097 1.65917 37.136 0.609172 34.997 0.255172C32.859 -0.0988279 30.663 0.263172 28.752 1.28517C26.84 2.30717 25.32 3.93217 24.426 5.90617C23.532 7.88117 23.316 10.0962 23.81 12.2062C15.63 11.8202 8.384 7.89017 3.53 1.95417C2.648 3.45417 2.187 5.16417 2.198 6.90417C2.198 10.3242 3.938 13.3302 6.574 15.0962C5.012 15.0462 3.484 14.6242 2.118 13.8642V13.9842C2.117 16.2572 2.903 18.4602 4.341 20.2202C5.779 21.9792 7.782 23.1872 10.01 23.6382C8.567 24.0252 7.055 24.0832 5.586 23.8082C6.218 25.7642 7.445 27.4742 9.096 28.6992C10.747 29.9242 12.739 30.6032 14.794 30.6422C11.313 33.3742 7.015 34.8572 2.59 34.8522C1.81 34.8522 1.032 34.8062 0.25 34.7182C4.761 37.6072 10.007 39.1402 15.364 39.1362C33.47 39.1362 43.36 24.1442 43.36 11.1662C43.36 10.7462 43.36 10.3262 43.33 9.90617C45.262 8.51617 46.928 6.79017 48.25 4.81017L48.156 4.77017Z" fill="white"/>
</svg>
