<svg width="15" height="21" viewBox="0 0 15 21" fill="none" xmlns="http://www.w3.org/2000/svg">
<path fill-rule="evenodd" clip-rule="evenodd" d="M1.1355 0.182377L7.5 3.99988L13.8645 0.182377C13.9783 0.11417 14.1082 0.0773846 14.2409 0.0757751C14.3736 0.0741656 14.5043 0.10779 14.6198 0.173216C14.7352 0.238642 14.8313 0.333527 14.8981 0.448187C14.9648 0.562848 15 0.693179 15 0.825877V14.1399C14.9998 14.2523 14.9744 14.3632 14.9256 14.4645C14.8768 14.5657 14.8058 14.6547 14.718 14.7249L7.968 20.1249C7.8351 20.231 7.67008 20.2888 7.5 20.2888C7.32993 20.2888 7.1649 20.231 7.032 20.1249L0.282002 14.7249C0.194162 14.6547 0.123212 14.5657 0.0744002 14.4645C0.0255882 14.3632 0.000162036 14.2523 1.8342e-06 14.1399V0.825877C-0.000291882 0.693051 0.0346946 0.56253 0.101384 0.447659C0.168073 0.332788 0.264073 0.237689 0.379567 0.172084C0.495061 0.10648 0.625906 0.0727246 0.758723 0.0742695C0.891541 0.0758144 1.02156 0.112604 1.1355 0.180877V0.182377ZM1.5 2.15038L7.5 5.75038V18.5799L1.5 13.7799V2.15038Z" fill="#99968F"/>
</svg>
