<svg width="14" height="13" viewBox="0 0 14 13" fill="none" xmlns="http://www.w3.org/2000/svg">
<path d="M2.53302 12.7852C2.12202 12.7852 1.70802 12.6992 1.29102 12.5272C0.874016 12.3542 0.499016 12.0632 0.166016 11.6522C0.599016 11.5182 0.902016 11.3322 1.07402 11.0932C1.24702 10.8542 1.33802 10.5132 1.34902 10.0682C1.37202 9.55819 1.56302 9.12719 1.92402 8.77719C2.28502 8.42719 2.73802 8.25219 3.28302 8.25219C3.81602 8.25219 4.26902 8.43819 4.64102 8.81019C5.01302 9.18219 5.19902 9.63519 5.19902 10.1682C5.19902 10.9352 4.94102 11.5632 4.42402 12.0522C3.90802 12.5412 3.27702 12.7852 2.53302 12.7852ZM6.54902 8.68519L4.83302 6.88519L11.433 0.285189C11.5665 0.139767 11.7519 0.0528154 11.949 0.0431893C12.139 0.0381893 12.316 0.118189 12.483 0.285189L13.183 0.985189C13.349 1.15219 13.43 1.33219 13.424 1.52719C13.4161 1.72714 13.3295 1.91586 13.183 2.05219L6.54902 8.68519Z" fill="#5A5957"/>
</svg>
