<svg width="15" height="21" viewBox="0 0 15 21" fill="none" xmlns="http://www.w3.org/2000/svg">
<path fill-rule="evenodd" clip-rule="evenodd" d="M1.1355 0.682377L7.5 4.49988L13.8645 0.682377C13.9783 0.61417 14.1082 0.577385 14.2409 0.575775C14.3736 0.574166 14.5043 0.60779 14.6198 0.673216C14.7352 0.738642 14.8313 0.833527 14.8981 0.948187C14.9648 1.06285 15 1.19318 15 1.32588V14.6399C14.9998 14.7523 14.9744 14.8632 14.9256 14.9645C14.8768 15.0657 14.8058 15.1547 14.718 15.2249L7.968 20.6249C7.8351 20.731 7.67008 20.7888 7.5 20.7888C7.32993 20.7888 7.1649 20.731 7.032 20.6249L0.282002 15.2249C0.194162 15.1547 0.123212 15.0657 0.0744002 14.9645C0.0255882 14.8632 0.000162036 14.7523 1.8342e-06 14.6399V1.32588C-0.000291882 1.19305 0.0346946 1.06253 0.101384 0.947659C0.168073 0.832788 0.264073 0.737689 0.379567 0.672084C0.495061 0.60648 0.625906 0.572725 0.758723 0.574269C0.891541 0.575814 1.02156 0.612604 1.1355 0.680877V0.682377ZM1.5 2.65038L7.5 6.25038V19.0799L1.5 14.2799V2.65038Z" fill="#99968F"/>
</svg>
