<svg width="24" height="20" viewBox="0 0 24 20" fill="none" xmlns="http://www.w3.org/2000/svg">
<path d="M23.953 2.50991C23.0545 2.90551 22.1026 3.16665 21.128 3.28491C22.1541 2.66816 22.9224 1.70095 23.291 0.561906C22.34 1.11691 21.286 1.52091 20.164 1.74591C19.4238 0.954336 18.4429 0.429328 17.3736 0.252408C16.3044 0.075488 15.2067 0.256557 14.2509 0.767497C13.2952 1.27844 12.5349 2.09066 12.0881 3.07803C11.6412 4.0654 11.533 5.17268 11.78 6.22791C7.69 6.03491 4.067 4.06991 1.64 1.10191C1.19879 1.85172 0.968664 2.70693 0.974 3.57691C0.974 5.28691 1.844 6.78991 3.162 7.67291C2.38086 7.64804 1.61697 7.43684 0.934 7.05691V7.11691C0.933557 8.2533 1.32627 9.35485 2.04551 10.2347C2.76474 11.1145 3.76621 11.7184 4.88 11.9439C4.1583 12.1373 3.40241 12.1663 2.668 12.0289C2.98412 13.0069 3.59766 13.8618 4.42301 14.4744C5.24837 15.087 6.24435 15.4266 7.272 15.4459C5.53153 16.8119 3.38248 17.5532 1.17 17.5509C0.78 17.5509 0.391 17.5279 0 17.4839C2.25571 18.9282 4.87851 19.6949 7.557 19.6929C16.61 19.6929 21.555 12.1969 21.555 5.70791C21.555 5.49791 21.555 5.28791 21.54 5.07791C22.506 4.38277 23.3392 3.51973 24 2.52991L23.953 2.50991Z" fill="#383736"/>
</svg>
