<svg width="17" height="16" viewBox="0 0 17 16" fill="none" xmlns="http://www.w3.org/2000/svg">
<path d="M11.2502 15.8125L5.77393 13.875L2.14893 15.3337C1.99623 15.4095 1.82625 15.4436 1.65616 15.4326C1.48607 15.4216 1.32188 15.366 1.18018 15.2713C0.867676 15.0763 0.711426 14.7837 0.711426 14.3962V2.77125C0.711426 2.52125 0.780176 2.3025 0.918926 2.115C1.05768 1.9275 1.23893 1.785 1.46143 1.6875L5.77393 0.1875L11.2502 2.10375L14.8539 0.64625C15.0107 0.577056 15.1821 0.547477 15.353 0.56012C15.5239 0.572763 15.689 0.627239 15.8339 0.71875C16.1527 0.90625 16.3127 1.19375 16.3127 1.58375V13.3538C16.3127 13.5763 16.2402 13.7662 16.0939 13.9275C15.9469 14.0877 15.7652 14.2121 15.5627 14.2913L11.2502 15.8125ZM10.5427 13.8125V3.54125L6.46018 2.16625V12.4375L10.5427 13.8125Z" fill="#8283FF"/>
</svg>
