<svg width="24" height="24" viewBox="0 0 24 24" fill="none" xmlns="http://www.w3.org/2000/svg">
<path d="M12 0.236938C5.37 0.236938 0 5.60994 0 12.2369C0 17.5399 3.438 22.0369 8.205 23.6219C8.805 23.7349 9.025 23.3639 9.025 23.0449C9.025 22.7599 9.015 22.0049 9.01 21.0049C5.672 21.7289 4.968 19.3949 4.968 19.3949C4.422 18.0099 3.633 17.6399 3.633 17.6399C2.546 16.8959 3.717 16.9109 3.717 16.9109C4.922 16.9949 5.555 18.1469 5.555 18.1469C6.625 19.9819 8.364 19.4519 9.05 19.1449C9.158 18.3689 9.467 17.8399 9.81 17.5399C7.145 17.2399 4.344 16.2079 4.344 11.6099C4.344 10.2999 4.809 9.22994 5.579 8.38994C5.444 8.08694 5.039 6.86694 5.684 5.21394C5.684 5.21394 6.689 4.89194 8.984 6.44394C9.944 6.17694 10.964 6.04494 11.984 6.03894C13.004 6.04494 14.024 6.17694 14.984 6.44394C17.264 4.89194 18.269 5.21394 18.269 5.21394C18.914 6.86694 18.509 8.08694 18.389 8.38994C19.154 9.22994 19.619 10.2999 19.619 11.6099C19.619 16.2199 16.814 17.2349 14.144 17.5299C14.564 17.8899 14.954 18.6259 14.954 19.7499C14.954 21.3559 14.939 22.6459 14.939 23.0359C14.939 23.3509 15.149 23.7259 15.764 23.6059C20.565 22.0319 24 17.5319 24 12.2369C24 5.60994 18.627 0.236938 12 0.236938Z" fill="#383736"/>
</svg>
