<svg width="17" height="16" viewBox="0 0 17 16" fill="none" xmlns="http://www.w3.org/2000/svg">
<path d="M15.0623 15.8125L9.52102 10.27C9.09294 10.6178 8.6061 10.8862 8.08352 11.0625C7.51386 11.2592 6.91492 11.3577 6.31227 11.3538C4.74227 11.3538 3.41977 10.8125 2.34352 9.72877C1.26727 8.64502 0.728516 7.34002 0.728516 5.81252C0.728516 4.28502 1.27102 2.97877 2.35352 1.89502C3.43727 0.812519 4.74227 0.27002 6.27102 0.27002C7.81227 0.27002 9.11727 0.812519 10.1873 1.89502C11.256 2.97877 11.791 4.28502 11.791 5.81252C11.791 6.42377 11.701 7.00002 11.521 7.54127C11.334 8.09502 11.0597 8.61533 10.7085 9.08252L16.271 14.6038L15.0623 15.8125ZM6.29102 9.68752C6.79973 9.696 7.30473 9.59948 7.77446 9.40397C8.24419 9.20847 8.66854 8.91819 9.02102 8.55127C9.3846 8.19502 9.67184 7.76847 9.86525 7.29762C10.0587 6.82678 10.1542 6.32148 10.146 5.81252C10.1544 5.30335 10.0589 4.79782 9.8655 4.32674C9.67209 3.85566 9.38475 3.42892 9.02102 3.07252C8.66844 2.70583 8.24403 2.41578 7.77431 2.22049C7.30459 2.0252 6.79964 1.92887 6.29102 1.93752C5.19352 1.93752 4.26602 2.31627 3.50977 3.07252C3.14345 3.42748 2.85375 3.85374 2.65854 4.32499C2.46334 4.79625 2.36676 5.3025 2.37477 5.81252C2.37477 6.88127 2.75352 7.79502 3.50977 8.55127C4.26727 9.30877 5.19352 9.68752 6.29102 9.68752Z" fill="#1A1A1A"/>
</svg>
