<svg width="22" height="21" viewBox="0 0 22 21" fill="none" xmlns="http://www.w3.org/2000/svg">
<path d="M10.9132 16.4444C11.1952 16.4445 11.4413 16.3396 11.6499 16.1327C11.7516 16.0337 11.832 15.9149 11.886 15.7836C11.9399 15.6523 11.9664 15.5113 11.9638 15.3694C11.9645 15.2317 11.9372 15.0954 11.8833 14.9687C11.8295 14.842 11.7503 14.7277 11.6506 14.6327C11.5558 14.5329 11.4416 14.4536 11.3149 14.3996C11.1883 14.3456 11.0519 14.3181 10.9143 14.3189C10.6143 14.3187 10.3592 14.4236 10.1506 14.632C10.0511 14.727 9.97198 14.8413 9.91827 14.9679C9.86455 15.0945 9.83732 15.2308 9.83826 15.3684C9.83811 15.6684 9.94299 15.9234 10.1499 16.132C10.249 16.2335 10.3679 16.3136 10.4992 16.3673C10.6305 16.421 10.7714 16.4473 10.9132 16.4444ZM9.91447 12.7944L11.614 12.7952C11.6142 12.3782 11.6683 11.9912 11.778 11.6328C11.8862 11.2728 12.2074 10.8695 12.7401 10.4198C13.2413 10.0375 13.5955 9.62965 13.8042 9.19625C14.0129 8.76135 14.1166 8.2874 14.1168 7.7714C14.1173 6.8714 13.8386 6.14527 13.2809 5.59601C12.7216 5.04524 11.9688 4.77039 11.0178 4.76994C10.1688 4.76954 9.41265 4.98968 8.75544 5.43037C8.09848 5.87019 7.59568 6.50463 7.31759 7.24469L8.86681 7.81992C9.06654 7.33702 9.34272 6.96965 9.69233 6.72081C10.042 6.47048 10.4425 6.34617 10.8925 6.34638C11.359 6.3466 11.7504 6.48329 12.0668 6.75943C12.3832 7.03408 12.542 7.38966 12.5418 7.82166C12.5417 8.15466 12.441 8.48011 12.2414 8.79652C12.0091 9.14846 11.7218 9.4608 11.3904 9.72162C10.9503 10.0864 10.5779 10.526 10.2903 11.0201C10.0396 11.47 9.91482 12.0609 9.91447 12.7944ZM10.8361 20.9699C9.41862 20.9692 8.08074 20.6986 6.824 20.155C5.59219 19.6306 4.47233 18.8749 3.52505 17.9289C2.58141 16.9838 1.82647 15.8675 1.3006 14.6399C0.755616 13.3686 0.479955 11.9981 0.490996 10.615C0.491672 9.18098 0.762306 7.8356 1.3044 6.57736C1.82558 5.35029 2.57716 4.2345 3.51845 3.2904C4.4651 2.349 5.581 1.5948 6.8075 1.06745C8.08161 0.514828 9.45712 0.234474 10.8459 0.244358C12.2784 0.245034 13.6283 0.52017 14.8955 1.07127C16.121 1.59457 17.2359 2.3459 18.181 3.28532C19.1174 4.22837 19.8675 5.33966 20.3919 6.56086C20.9418 7.82112 21.2157 9.17425 21.215 10.6247C21.2143 12.0572 20.9392 13.4026 20.3881 14.6609C19.8596 15.8869 19.1043 17.002 18.162 17.9478C17.2205 18.8861 16.1088 19.6365 14.8865 20.1588C13.6069 20.706 12.2278 20.9821 10.8361 20.9699Z" fill="#1A1A1A"/>
</svg>
