<svg width="16" height="16" viewBox="0 0 16 16" fill="none" xmlns="http://www.w3.org/2000/svg">
<path d="M14.5623 15.8125L9.02102 10.27C8.59294 10.6178 8.1061 10.8862 7.58352 11.0625C7.01386 11.2592 6.41492 11.3577 5.81227 11.3538C4.24227 11.3538 2.91977 10.8125 1.84352 9.72877C0.767266 8.64502 0.228516 7.34002 0.228516 5.81252C0.228516 4.28502 0.771016 2.97877 1.85352 1.89502C2.93727 0.812519 4.24227 0.27002 5.77102 0.27002C7.31227 0.27002 8.61727 0.812519 9.68727 1.89502C10.756 2.97877 11.291 4.28502 11.291 5.81252C11.291 6.42377 11.201 7.00002 11.021 7.54127C10.834 8.09502 10.5597 8.61533 10.2085 9.08252L15.771 14.6038L14.5623 15.8125ZM5.79102 9.68752C6.29973 9.696 6.80473 9.59948 7.27446 9.40397C7.74419 9.20847 8.16854 8.91819 8.52102 8.55127C8.8846 8.19502 9.17184 7.76847 9.36525 7.29762C9.55867 6.82678 9.65419 6.32148 9.64602 5.81252C9.65436 5.30335 9.55892 4.79782 9.3655 4.32674C9.17209 3.85566 8.88475 3.42892 8.52102 3.07252C8.16844 2.70583 7.74403 2.41578 7.27431 2.22049C6.80459 2.0252 6.29964 1.92887 5.79102 1.93752C4.69352 1.93752 3.76602 2.31627 3.00977 3.07252C2.64345 3.42748 2.35375 3.85374 2.15854 4.32499C1.96334 4.79625 1.86676 5.3025 1.87477 5.81252C1.87477 6.88127 2.25352 7.79502 3.00977 8.55127C3.76727 9.30877 4.69352 9.68752 5.79102 9.68752Z" fill="#1A1A1A"/>
</svg>
