<svg width="21" height="21" viewBox="0 0 21 21" fill="none" xmlns="http://www.w3.org/2000/svg">
<path d="M10.4626 16.4327C10.7446 16.4328 10.9906 16.3279 11.1992 16.121C11.3009 16.022 11.3813 15.9032 11.4353 15.7719C11.4893 15.6406 11.5157 15.4996 11.5131 15.3577C11.5139 15.22 11.4865 15.0837 11.4326 14.957C11.3788 14.8303 11.2996 14.716 11.1999 14.621C11.1051 14.5212 10.9909 14.4419 10.8642 14.3879C10.7376 14.3339 10.6012 14.3064 10.4636 14.3072C10.1636 14.307 9.90852 14.4119 9.69992 14.6203C9.60037 14.7152 9.5213 14.8295 9.46758 14.9562C9.41387 15.0828 9.38664 15.2191 9.38757 15.3567C9.38743 15.6567 9.49231 15.9117 9.69921 16.1203C9.79835 16.2218 9.91724 16.3018 10.0485 16.3556C10.1798 16.4093 10.3207 16.4355 10.4626 16.4327ZM9.46379 12.7827L11.1633 12.7835C11.1635 12.3665 11.2177 11.9795 11.3273 11.6211C11.4355 11.2611 11.7567 10.8578 12.2894 10.408C12.7906 10.0258 13.1448 9.61794 13.3535 9.18453C13.5622 8.74963 13.6659 8.27568 13.6662 7.75968C13.6666 6.85968 13.3879 6.13355 12.8302 5.58429C12.2709 5.03352 11.5181 4.75867 10.5671 4.75822C9.71807 4.75782 8.96196 4.97796 8.30476 5.41865C7.6478 5.85847 7.145 6.49291 6.8669 7.23298L8.41613 7.80821C8.61586 7.3253 8.89203 6.95793 9.24165 6.7091C9.59127 6.45876 9.99183 6.33445 10.4418 6.33466C10.9083 6.33488 11.2998 6.47157 11.6161 6.74772C11.9325 7.02236 12.0913 7.37794 12.0911 7.80994C12.091 8.14294 11.9903 8.46839 11.7907 8.7848C11.5584 9.13674 11.2711 9.44908 10.9397 9.7099C10.4996 10.0747 10.1272 10.5143 9.83962 11.0084C9.58891 11.4583 9.46413 12.0492 9.46379 12.7827ZM10.3854 20.9581C8.96793 20.9575 7.63006 20.6868 6.37331 20.1432C5.14151 19.6189 4.02165 18.8632 3.07436 17.9172C2.13073 16.9721 1.37579 15.8558 0.849914 14.6281C0.304932 13.3568 0.029271 11.9864 0.0403121 10.6033C0.0409882 9.16926 0.311623 7.82389 0.853716 6.56564C1.3749 5.33857 2.12648 4.22278 3.06777 3.27868C4.01442 2.33728 5.13032 1.58308 6.35681 1.05574C7.63093 0.503109 9.00644 0.222755 10.3952 0.23264C11.8277 0.233315 13.1776 0.508451 14.4448 1.05955C15.6703 1.58285 16.7852 2.33418 17.7303 3.2736C18.6667 4.21666 19.4168 5.32794 19.9412 6.54914C20.4911 7.8094 20.765 9.16253 20.7643 10.613C20.7636 12.0455 20.4885 13.3909 19.9374 14.6491C19.4089 15.8751 18.6537 16.9903 17.7114 17.9361C16.7698 18.8744 15.6581 19.6247 14.4358 20.147C13.1562 20.6942 11.7771 20.9704 10.3854 20.9581Z" fill="#1A1A1A"/>
</svg>
