<svg width="24" height="20" viewBox="0 0 24 20" fill="none" xmlns="http://www.w3.org/2000/svg">
<path d="M20.317 2.30979C18.761 1.59556 17.119 1.08624 15.4319 0.794592C15.4166 0.791733 15.4007 0.79378 15.3867 0.80044C15.3726 0.807101 15.3609 0.818037 15.3534 0.831692C15.1424 1.20699 14.9087 1.69649 14.7451 2.08119C12.9004 1.80499 11.0651 1.80499 9.2583 2.08119C9.0947 1.68789 8.8525 1.20699 8.6406 0.831692C8.63276 0.818348 8.62107 0.80768 8.60706 0.80108C8.59306 0.794479 8.57739 0.792253 8.5621 0.794692C6.87488 1.08566 5.2327 1.59493 3.6769 2.30969C3.66359 2.31538 3.65238 2.32506 3.6448 2.33739C0.533404 6.98579 -0.318996 11.5199 0.099204 15.9978C0.100386 16.0088 0.103757 16.0194 0.109116 16.029C0.114476 16.0386 0.121714 16.0471 0.130404 16.0539C2.1832 17.5615 4.1717 18.4767 6.1233 19.0833C6.13848 19.0878 6.15468 19.0876 6.16972 19.0827C6.18477 19.0777 6.19795 19.0683 6.2075 19.0557C6.6691 18.4253 7.0806 17.7605 7.4335 17.0615C7.43835 17.0519 7.44112 17.0414 7.44163 17.0307C7.44213 17.02 7.44036 17.0093 7.43643 16.9993C7.4325 16.9893 7.4265 16.9803 7.41883 16.9728C7.41115 16.9653 7.40198 16.9595 7.3919 16.9558C6.7391 16.7082 6.1176 16.4063 5.5197 16.0635C5.5088 16.0571 5.49964 16.0481 5.49304 16.0373C5.48643 16.0265 5.48258 16.0143 5.48183 16.0017C5.48108 15.989 5.48345 15.9764 5.48873 15.9649C5.49401 15.9535 5.50204 15.9434 5.5121 15.9358C5.6379 15.8415 5.7638 15.7435 5.8839 15.6444C5.89458 15.6356 5.9075 15.6299 5.92121 15.6281C5.93492 15.6262 5.94887 15.6282 5.9615 15.6339C9.8893 17.4272 14.1415 17.4272 18.0229 15.6339C18.0355 15.6279 18.0496 15.6256 18.0635 15.6273C18.0774 15.6289 18.0906 15.6345 18.1014 15.6434C18.2216 15.7424 18.3474 15.8415 18.4742 15.9358C18.4843 15.9434 18.4924 15.9533 18.4977 15.9647C18.5031 15.9762 18.5055 15.9887 18.5049 16.0013C18.5042 16.014 18.5005 16.0262 18.494 16.037C18.4875 16.0478 18.4784 16.0569 18.4676 16.0634C17.8695 16.4127 17.2429 16.7109 16.5946 16.9548C16.5845 16.9586 16.5754 16.9646 16.5678 16.9722C16.5602 16.9798 16.5542 16.989 16.5504 16.999C16.5466 17.0091 16.5449 17.0199 16.5455 17.0306C16.5461 17.0414 16.549 17.0519 16.5539 17.0615C16.9143 17.7595 17.3258 18.4243 17.7789 19.0547C17.7882 19.0677 17.8013 19.0775 17.8164 19.0826C17.8315 19.0877 17.8478 19.088 17.8631 19.0833C19.8241 18.4766 21.8126 17.5614 23.8654 16.0539C23.8742 16.0474 23.8816 16.0392 23.887 16.0297C23.8924 16.0201 23.8957 16.0096 23.8967 15.9987C24.3971 10.8217 23.0585 6.32479 20.3482 2.33829C20.3416 2.32534 20.3305 2.3153 20.317 2.30979ZM8.02 13.2712C6.8375 13.2712 5.8631 12.1855 5.8631 10.8522C5.8631 9.51899 6.8186 8.43329 8.0201 8.43329C9.2309 8.43329 10.1958 9.52849 10.1769 10.8523C10.1769 12.1855 9.2214 13.2712 8.02 13.2712ZM15.9948 13.2712C14.8123 13.2712 13.8379 12.1855 13.8379 10.8522C13.8379 9.51899 14.7933 8.43329 15.9948 8.43329C17.2056 8.43329 18.1705 9.52849 18.1516 10.8523C18.1516 12.1855 17.2056 13.2712 15.9948 13.2712Z" fill="#383736"/>
</svg>
