<svg width="19" height="18" viewBox="0 0 19 18" fill="none" xmlns="http://www.w3.org/2000/svg">
<path d="M4.49957 10.6886H11.0208V9.43855H4.49957V10.6886ZM4.49957 7.98105H14.4996V6.73105H4.49957V7.98105ZM4.49957 5.2723H14.4996V4.0223H4.49957V5.2723ZM0.87207 17.6298V2.0248C0.87207 1.5698 1.03457 1.17855 1.35832 0.852305C1.68332 0.526055 2.07082 0.362305 2.52207 0.362305H16.4771C16.9308 0.362305 17.3221 0.524805 17.6483 0.852305C17.9758 1.17855 18.1383 1.5698 18.1383 2.0248V12.6461C18.1383 13.0961 17.9758 13.4848 17.6483 13.8086C17.3233 14.1336 16.9308 14.2961 16.4771 14.2961H4.20457L0.87207 17.6298Z" fill="#8283FF"/>
</svg>
