<svg width="33" height="33" viewBox="0 0 33 33" fill="none" xmlns="http://www.w3.org/2000/svg">
<path d="M9.41651 25.6351L28.6165 25.6441L28.625 7.64413L4.625 7.63281L4.61651 25.6328L9.41651 25.6351Z" fill="#F5C13D"/>
<path d="M18.625 7.63934L18.6241 9.63934L16.6241 9.63839L16.6231 11.6384L14.6231 11.6375L14.6184 21.6374L16.6184 21.6384L16.6175 23.6384L18.6175 23.6393L18.6165 25.6393L28.6165 25.6441L28.6184 21.6441L20.6184 21.6403L20.6193 19.6403L18.6193 19.6393L18.6222 13.6393L20.6222 13.6403L20.6231 11.6403L28.6231 11.6441L28.625 7.64405L18.625 7.63934Z" fill="#FFD466"/>
<path fill-rule="evenodd" clip-rule="evenodd" d="M20.6192 19.6404L20.6221 13.6404L28.6221 13.6442L28.6192 19.6442L20.6192 19.6404ZM22.6202 17.6413L26.6202 17.6432L26.6211 15.6432L22.6211 15.6413L22.6202 17.6413Z" fill="#FFE299"/>
<path d="M28.625 7.64413L4.62503 7.63281L4.62598 5.63281L28.626 5.64413L28.625 7.64413Z" fill="#1A1A1A"/>
<path d="M28.6165 25.6442L28.6184 21.648L20.6184 21.6442L20.6193 19.6443L28.6193 19.6481L28.6222 13.648L20.6222 13.6442L20.6231 11.6443L28.6231 11.6481L28.625 7.64415L30.625 7.6451L30.6165 25.6451L28.6165 25.6442Z" fill="#1A1A1A"/>
<path d="M4.61651 25.6328L2.61651 25.6318L2.625 7.63184L4.625 7.63278L4.61651 25.6328Z" fill="#1A1A1A"/>
<path d="M4.61621 25.6328L4.61527 27.6328L28.6153 27.6441L28.6162 25.6441L4.61621 25.6328Z" fill="#1A1A1A"/>
<path d="M18.6192 19.6431L20.6192 19.6441L20.6221 13.644L18.6221 13.6432L18.6192 19.6431Z" fill="#1A1A1A"/>
<path d="M22.6202 17.6449L22.6211 15.645L26.6213 15.6469L26.6204 17.6468L22.6202 17.6449Z" fill="#1A1A1A"/>
</svg>
