<svg width="33" height="33" viewBox="0 0 33 33" fill="none" xmlns="http://www.w3.org/2000/svg">
<path d="M8.86671 25.6468L28.0667 25.6558L28.0752 7.65585L4.0752 7.64453L4.06671 25.6445L8.86671 25.6468Z" fill="#F5C13D"/>
<path d="M18.0752 7.6513L18.0743 9.6513L16.0743 9.65036L16.0733 11.6504L14.0733 11.6494L14.0686 21.6494L16.0686 21.6504L16.0677 23.6504L18.0677 23.6513L18.0667 25.6513L28.0667 25.656L28.0686 21.656L20.0686 21.6522L20.0695 19.6522L18.0695 19.6513L18.0724 13.6513L20.0724 13.6522L20.0733 11.6522L28.0733 11.656L28.0752 7.65602L18.0752 7.6513Z" fill="#FFD466"/>
<path fill-rule="evenodd" clip-rule="evenodd" d="M20.0694 19.6519L20.0723 13.6519L28.0723 13.6556L28.0694 19.6556L20.0694 19.6519ZM22.0704 17.6528L26.0704 17.6547L26.0713 15.6547L22.0713 15.6528L22.0704 17.6528Z" fill="#FFE299"/>
<path d="M28.0752 7.65585L4.07523 7.64453L4.07617 5.64453L28.0762 5.65585L28.0752 7.65585Z" fill="#1A1A1A"/>
<path d="M28.0667 25.6556L28.0686 21.6594L20.0686 21.6557L20.0695 19.6558L28.0695 19.6595L28.0724 13.6594L20.0724 13.6557L20.0733 11.6558L28.0733 11.6595L28.0752 7.65563L30.0752 7.65657L30.0667 25.6566L28.0667 25.6556Z" fill="#1A1A1A"/>
<path d="M4.06671 25.6445L2.06671 25.6436L2.0752 7.64355L4.0752 7.6445L4.06671 25.6445Z" fill="#1A1A1A"/>
<path d="M4.06689 25.6445L4.06595 27.6445L28.0659 27.6558L28.0669 25.6558L4.06689 25.6445Z" fill="#1A1A1A"/>
<path d="M18.0694 19.6548L20.0694 19.6558L20.0723 13.6557L18.0723 13.6549L18.0694 19.6548Z" fill="#1A1A1A"/>
<path d="M22.0708 17.6566L22.0718 15.6567L26.072 15.6586L26.071 17.6585L22.0708 17.6566Z" fill="#1A1A1A"/>
</svg>
