<svg width="14" height="13" viewBox="0 0 14 13" fill="none" xmlns="http://www.w3.org/2000/svg">
<path d="M2.53302 12.7849C2.12202 12.7849 1.70802 12.6989 1.29102 12.5269C0.874016 12.3539 0.499016 12.0629 0.166016 11.6519C0.599016 11.5179 0.902015 11.3319 1.07402 11.0929C1.24702 10.8539 1.33802 10.5129 1.34902 10.0679C1.37202 9.55795 1.56302 9.12695 1.92402 8.77695C2.28502 8.42695 2.73802 8.25195 3.28302 8.25195C3.81602 8.25195 4.26902 8.43795 4.64102 8.80995C5.01302 9.18195 5.19902 9.63495 5.19902 10.1679C5.19902 10.9349 4.94102 11.5629 4.42402 12.0519C3.90802 12.5409 3.27702 12.7849 2.53302 12.7849ZM6.54902 8.68495L4.83302 6.88495L11.433 0.284945C11.5665 0.139523 11.7519 0.0525713 11.949 0.0429451C12.139 0.0379451 12.316 0.117945 12.483 0.284945L13.183 0.984945C13.349 1.15195 13.43 1.33195 13.424 1.52695C13.4161 1.7269 13.3295 1.91562 13.183 2.05195L6.54902 8.68495Z" fill="#5A5957"/>
</svg>
