<svg width="14" height="9" viewBox="0 0 14 9" fill="none" xmlns="http://www.w3.org/2000/svg">
<path d="M6.4001 8.06795H3.6661C2.6771 8.06795 1.8361 7.72095 1.1411 7.02595C0.447098 6.33195 0.100098 5.48995 0.100098 4.50095C0.100098 3.51195 0.447098 2.66795 1.1411 1.96795C1.46729 1.62889 1.85983 1.36067 2.29426 1.18002C2.72868 0.999364 3.19567 0.910154 3.6661 0.917951H6.4001V2.25095H3.6661C3.0441 2.25095 2.5131 2.46795 2.0751 2.90095C1.8609 3.10781 1.69178 3.35673 1.57837 3.63208C1.46497 3.90742 1.40972 4.20324 1.4161 4.50095C1.4161 5.12395 1.6361 5.65395 2.0751 6.09295C2.5131 6.53195 3.0451 6.75095 3.6661 6.75095H6.4001V8.06795ZM4.2501 5.05095V3.95095H9.7501V5.05095H4.2501ZM7.6001 8.06795V6.75095H10.3331C10.9551 6.75095 11.4861 6.53495 11.9251 6.10095C12.1391 5.894 12.308 5.64504 12.4213 5.3697C12.5345 5.09437 12.5896 4.79859 12.5831 4.50095C12.5831 3.87895 12.3631 3.34895 11.9251 2.90995C11.7189 2.69713 11.4712 2.52885 11.1974 2.41551C10.9236 2.30216 10.6294 2.24616 10.3331 2.25095H7.6001V0.917951H10.3331C11.3221 0.917951 12.1661 1.26795 12.8661 1.96795C13.5661 2.66795 13.9161 3.51195 13.9161 4.50095C13.9161 5.49095 13.5661 6.33095 12.8661 7.02595C12.5368 7.36255 12.1423 7.62854 11.7069 7.80769C11.2714 7.98684 10.8039 8.07539 10.3331 8.06795H7.6001Z" fill="#8283FF"/>
</svg>
