<svg width="19" height="18" viewBox="0 0 19 18" fill="none" xmlns="http://www.w3.org/2000/svg">
<path d="M4.1663 13.5612C4.97099 13.0391 5.83933 12.6224 6.75005 12.3212C7.6401 12.044 8.56786 11.9069 9.50005 11.915C10.4863 11.915 11.4088 12.0537 12.27 12.3312C13.1325 12.61 13.9925 13.0187 14.8538 13.5612C15.4513 12.7975 15.8713 12.05 16.1138 11.3212C16.3601 10.5719 16.4834 9.78752 16.4788 8.99872C16.4788 7.02622 15.8088 5.36997 14.4688 4.02997C13.1275 2.68747 11.4713 2.01872 9.50005 2.01872C7.52755 2.01872 5.8713 2.68872 4.5313 4.02997C3.19005 5.36997 2.52005 7.02497 2.52005 8.99872C2.52005 9.81747 2.64505 10.5925 2.89505 11.3212C3.14505 12.05 3.57005 12.7962 4.1663 13.5612ZM9.50005 9.70622C8.6663 9.70622 7.9713 9.42497 7.4163 8.86247C6.86005 8.29997 6.58255 7.60997 6.58255 6.78997C6.58255 5.95622 6.8638 5.25872 7.4263 4.69622C7.9888 4.13372 8.68005 3.85247 9.50005 3.85247C10.3325 3.85247 11.0275 4.13747 11.5825 4.70622C12.1388 5.27622 12.4163 5.96997 12.4163 6.78997C12.4163 7.60997 12.135 8.29997 11.5725 8.86247C11.01 9.42497 10.3188 9.70622 9.50005 9.70622ZM9.50005 17.625C8.30505 17.625 7.1838 17.4 6.13505 16.9475C5.10834 16.511 4.17482 15.8817 3.38505 15.0937C2.5858 14.2932 1.95261 13.3427 1.52187 12.2967C1.09112 11.2507 0.871303 10.1299 0.875047 8.99872C0.875047 7.80372 1.10005 6.68247 1.5513 5.63372C1.98655 4.60898 2.61653 3.67845 3.4063 2.89372C4.19975 2.11022 5.13236 1.48156 6.1563 1.03997C7.21746 0.579119 8.36316 0.344954 9.52005 0.35247C10.7013 0.35247 11.815 0.58122 12.8638 1.03997C13.8857 1.47991 14.8153 2.10884 15.6038 2.89372C16.3887 3.68223 17.0176 4.61184 17.4575 5.63372C17.9163 6.68247 18.145 7.80372 18.145 8.99872C18.145 10.1787 17.9163 11.2937 17.4575 12.3425C17.016 13.3664 16.3873 14.299 15.6038 15.0925C14.819 15.8818 13.8884 16.5114 12.8638 16.9462C11.8009 17.4006 10.6559 17.6325 9.50005 17.625Z" fill="#1A1A1A"/>
</svg>
