<svg width="21" height="21" viewBox="0 0 21 21" fill="none" xmlns="http://www.w3.org/2000/svg">
<path d="M10.4626 16.4324C10.7446 16.4326 10.9906 16.3277 11.1992 16.1208C11.3009 16.0218 11.3813 15.9029 11.4353 15.7716C11.4893 15.6403 11.5157 15.4994 11.5131 15.3574C11.5139 15.2198 11.4865 15.0834 11.4326 14.9567C11.3788 14.8301 11.2996 14.7157 11.1999 14.6208C11.1051 14.521 10.9909 14.4416 10.8642 14.3876C10.7376 14.3337 10.6012 14.3062 10.4636 14.3069C10.1636 14.3068 9.90852 14.4117 9.69992 14.6201C9.60037 14.715 9.5213 14.8293 9.46758 14.9559C9.41387 15.0826 9.38664 15.2189 9.38757 15.3564C9.38743 15.6564 9.49231 15.9115 9.69921 16.1201C9.79835 16.2215 9.91724 16.3016 10.0485 16.3553C10.1798 16.409 10.3207 16.4353 10.4626 16.4324ZM9.46379 12.7825L11.1633 12.7833C11.1635 12.3663 11.2177 11.9793 11.3273 11.6208C11.4355 11.2609 11.7567 10.8575 12.2894 10.4078C12.7906 10.0255 13.1448 9.61769 13.3535 9.18429C13.5622 8.74939 13.6659 8.27544 13.6662 7.75944C13.6666 6.85944 13.3879 6.13331 12.8302 5.58404C12.2709 5.03328 11.5181 4.75842 10.5671 4.75798C9.71807 4.75758 8.96197 4.97772 8.30476 5.41841C7.64779 5.85822 7.145 6.49267 6.8669 7.23273L8.41613 7.80796C8.61586 7.32506 8.89203 6.95769 9.24165 6.70885C9.59127 6.45852 9.99183 6.33421 10.4418 6.33442C10.9083 6.33464 11.2998 6.47132 11.6161 6.74747C11.9325 7.02212 12.0913 7.37769 12.0911 7.80969C12.091 8.14269 11.9903 8.46815 11.7907 8.78455C11.5584 9.1365 11.2711 9.44884 10.9397 9.70965C10.4996 10.0745 10.1272 10.514 9.83962 11.0081C9.58891 11.458 9.46413 12.049 9.46379 12.7825ZM10.3854 20.9579C8.96793 20.9572 7.63006 20.6866 6.37331 20.143C5.14151 19.6186 4.02165 18.863 3.07436 17.9169C2.13073 16.9718 1.37579 15.8556 0.849914 14.6279C0.304932 13.3566 0.029271 11.9862 0.0403121 10.603C0.0409882 9.16901 0.311623 7.82364 0.853716 6.5654C1.3749 5.33832 2.12648 4.22254 3.06777 3.27844C4.01442 2.33703 5.13032 1.58284 6.35681 1.05549C7.63093 0.502865 9.00644 0.222511 10.3952 0.232395C11.8277 0.233071 13.1776 0.508207 14.4448 1.0593C15.6703 1.5826 16.7852 2.33394 17.7303 3.27335C18.6667 4.21641 19.4168 5.3277 19.9412 6.5489C20.4911 7.80916 20.765 9.16228 20.7643 10.6128C20.7636 12.0453 20.4885 13.3907 19.9374 14.6489C19.4089 15.8749 18.6537 16.9901 17.7114 17.9358C16.7698 18.8741 15.6581 19.6245 14.4358 20.1468C13.1562 20.694 11.7771 20.9702 10.3854 20.9579Z" fill="#1A1A1A"/>
</svg>
