<svg width="17" height="16" viewBox="0 0 17 16" fill="none" xmlns="http://www.w3.org/2000/svg">
<path d="M11.2497 15.8125L5.77344 13.875L2.14844 15.3337C1.99574 15.4095 1.82576 15.4436 1.65567 15.4326C1.48558 15.4216 1.32139 15.366 1.17969 15.2713C0.867188 15.0763 0.710938 14.7837 0.710938 14.3962V2.77125C0.710938 2.52125 0.779687 2.3025 0.918437 2.115C1.05719 1.9275 1.23844 1.785 1.46094 1.6875L5.77344 0.1875L11.2497 2.10375L14.8534 0.64625C15.0102 0.577056 15.1816 0.547477 15.3525 0.56012C15.5234 0.572763 15.6886 0.627239 15.8334 0.71875C16.1522 0.90625 16.3122 1.19375 16.3122 1.58375V13.3537C16.3122 13.5762 16.2397 13.7662 16.0934 13.9275C15.9464 14.0877 15.7647 14.2121 15.5622 14.2912L11.2497 15.8125ZM10.5422 13.8125V3.54125L6.45969 2.16625V12.4375L10.5422 13.8125Z" fill="#8283FF"/>
</svg>
